<?xml version="1.0" encoding="utf-8"?>
<!-- Generator: Adobe Illustrator 26.2.1, SVG Export Plug-In . SVG Version: 6.00 Build 0)  -->
<svg version="1.1" id="Layer_1" xmlns="http://www.w3.org/2000/svg" xmlns:xlink="http://www.w3.org/1999/xlink" x="0px" y="0px"
	 viewBox="0 0 955 680.5" style="enable-background:new 0 0 955 680.5;" xml:space="preserve">
<style type="text/css">
	.st0{opacity:0.1;fill:#252223;enable-background:new    ;}
	.st1{opacity:0.3;fill:#5D7E69;enable-background:new    ;}
	.st2{opacity:0.4;fill:#FFFFFF;enable-background:new    ;}
	.st3{fill:#5D7E69;}
	.st4{fill:none;stroke:#535461;stroke-miterlimit:10;}
	.st5{fill:none;stroke:#535461;stroke-width:2;stroke-miterlimit:10;}
	.st6{opacity:0.25;enable-background:new    ;}
	.st7{fill:#535461;}
	.st8{opacity:0.5;}
	.st9{fill:url(#SVGID_1_);}
	.st10{fill:#3A384D;}
	.st11{opacity:0.1;enable-background:new    ;}
	.st12{fill:#BEC7DE;}
	.st13{fill:#BE7C5E;}
	.st14{fill:#723647;}
	.st15{fill:#252A62;}
	.st16{fill:#F3AD55;}
	.st17{fill:#FBDCA3;}
	.st18{fill:#383F4D;}
</style>
<path class="st0" d="M857.6,578c-7.1,3.7-14.6,6.8-21.9,10c-27.2,11.5-54.8,23.1-84,27c-54.9,7.3-111.5-12.7-165.4-0.2
	c-45.2,10.4-82.5,42.3-126.6,56.6c-20.5,6.6-41.8,9.2-63.4,9.2h-2.8c-2.7,0-5.3-0.1-7.9-0.2c-21.8-0.8-43.8-4-65.1-8.2
	c-67.6-13-136.3-36.8-188-80.7C282.8,563.9,592.7,521.8,857.6,578z"/>
<polygon class="st1" points="910,249 910,185 872,185 872,249 827,249 827,150 794,150 794,76 767,76 767,0 711,0 711,76 684,76 
	684,150 652,150 652,61 634,61 634,16 623,16 623,61 559,61 559,345 510,345 510,315 480,315 480,345 431,345 431,249 343,249 
	343,185 305,185 305,249 303,249 303,372 263,372 263,300 215,300 215,372 175,372 175,150 144,150 144,76 30,76 30,150 0,150 
	0,541 175,541 303,541 431,541 559,541 652,541 827,541 955,541 955,249 "/>
<rect x="19" y="173" class="st2" width="42" height="24"/>
<rect x="113" y="173" class="st2" width="42" height="24"/>
<rect x="19" y="220" class="st2" width="42" height="24"/>
<rect x="113" y="220" class="st2" width="42" height="24"/>
<rect x="19" y="267" class="st2" width="42" height="24"/>
<rect x="113" y="267" class="st2" width="42" height="24"/>
<rect x="19" y="314" class="st2" width="42" height="24"/>
<rect x="113" y="314" class="st2" width="42" height="24"/>
<rect x="19" y="361" class="st2" width="42" height="24"/>
<rect x="113" y="361" class="st2" width="42" height="24"/>
<rect x="19" y="408" class="st2" width="42" height="24"/>
<rect x="113" y="408" class="st2" width="42" height="24"/>
<rect x="19" y="455" class="st2" width="42" height="24"/>
<rect x="113" y="455" class="st2" width="42" height="24"/>
<rect x="190" y="396" class="st2" width="98" height="12"/>
<rect x="190" y="414" class="st2" width="98" height="12"/>
<rect x="190" y="432" class="st2" width="98" height="12"/>
<rect x="446" y="402" class="st2" width="98" height="12"/>
<rect x="446" y="420" class="st2" width="98" height="12"/>
<rect x="446" y="438" class="st2" width="98" height="12"/>
<rect x="190" y="450" class="st2" width="98" height="12"/>
<rect x="190" y="468" class="st2" width="98" height="12"/>
<rect x="190" y="486" class="st2" width="98" height="12"/>
<rect x="324" y="272" class="st2" width="27" height="35"/>
<rect x="383" y="272" class="st2" width="27" height="35"/>
<rect x="324" y="328" class="st2" width="27" height="35"/>
<rect x="383" y="328" class="st2" width="27" height="35"/>
<rect x="324" y="384" class="st2" width="27" height="35"/>
<rect x="383" y="384" class="st2" width="27" height="35"/>
<rect x="324" y="440" class="st2" width="27" height="35"/>
<rect x="383" y="440" class="st2" width="27" height="35"/>
<rect x="559" y="84" class="st2" width="36" height="46"/>
<rect x="559" y="150" class="st2" width="36" height="46"/>
<rect x="559" y="216" class="st2" width="36" height="46"/>
<rect x="559" y="282" class="st2" width="36" height="46"/>
<rect x="559" y="348" class="st2" width="36" height="46"/>
<rect x="559" y="414" class="st2" width="36" height="46"/>
<rect x="672.5" y="178" class="st2" width="134" height="39"/>
<rect x="673" y="262" class="st2" width="134" height="39"/>
<rect x="673.5" y="346" class="st2" width="134" height="39"/>
<rect x="674" y="430" class="st2" width="134" height="39"/>
<rect x="30" y="97" class="st2" width="18" height="38"/>
<rect x="910" y="272" class="st2" width="45" height="58"/>
<rect x="910" y="356" class="st2" width="45" height="58"/>
<rect x="910" y="440" class="st2" width="45" height="58"/>
<path class="st3" d="M49.7,479.5c0,0-78.7,47.5,66.4,120.6c0,0,32-59.4-3.4-107.8c-14.2-19.5-40.8-25.4-61.8-13.5L49.7,479.5z"/>
<path class="st4" d="M50.6,478.5c0,0,67.4,51.5,65.5,121.6"/>
<path class="st5" d="M119.7,602.9c0,0-24.7-83.8,4.6-145.4c12.3-25.9,16.4-54.9,10.7-83c-2.7-13.3-6.6-26.4-11.8-39"/>
<path class="st3" d="M141.5,296.6c0,10.3-18.6,40-18.6,40s-18.6-29.8-18.6-40c-0.2-10.3,7.9-18.8,18.2-19s18.8,7.9,19,18.2
	C141.5,296,141.5,296.3,141.5,296.6z"/>
<path class="st3" d="M172.3,353.4c-5.6,8.6-37.4,23.5-37.4,23.5s0.6-35.1,6.1-43.7c5.7-8.5,17.2-10.9,25.8-5.2
	C175.2,333.6,177.6,344.9,172.3,353.4z"/>
<path class="st3" d="M170.9,450.6c-9.2,4.6-44.1,1.4-44.1,1.4s18.2-30,27.4-34.6c9.2-4.5,20.4-0.7,24.9,8.5
	C183.5,435,179.9,445.9,170.9,450.6z"/>
<path class="st3" d="M153.3,523.9c-8.2,6.1-43.2,8.9-43.2,8.9s12.9-32.7,21.1-38.8c8.4-5.9,20-4,25.9,4.4
	C162.9,506.5,161.3,517.8,153.3,523.9z"/>
<path class="st3" d="M95.9,378.9c7.4,7.1,41.7,14.6,41.7,14.6s-8.4-34.1-15.8-41.2c-7.4-7.2-19.1-7-26.3,0.4S88.5,371.8,95.9,378.9
	L95.9,378.9L95.9,378.9z"/>
<path class="st3" d="M76.4,464.9c9.2,4.6,44.1,1.4,44.1,1.4s-18.2-30-27.4-34.6c-9.1-4.8-20.3-1.3-25.1,7.7s-1.3,20.3,7.7,25.1
	C76,464.7,76.2,464.8,76.4,464.9z"/>
<path class="st3" d="M69,551c8.2,6.1,43.2,8.9,43.2,8.9s-12.9-32.6-21.1-38.7c-8.4-5.9-20-4-25.9,4.4C59.4,533.7,61,544.9,69,551
	L69,551z"/>
<path class="st6" d="M141.5,296.6c0,10.3-18.6,40-18.6,40s-18.6-29.8-18.6-40c-0.2-10.3,7.9-18.8,18.2-19s18.8,7.9,19,18.2
	C141.5,296,141.5,296.3,141.5,296.6z"/>
<path class="st6" d="M172.3,353.4c-5.6,8.6-37.4,23.5-37.4,23.5s0.6-35.1,6.1-43.7c5.7-8.5,17.2-10.9,25.8-5.2
	C175.2,333.6,177.6,344.9,172.3,353.4z"/>
<path class="st6" d="M170.9,450.6c-9.2,4.6-44.1,1.4-44.1,1.4s18.2-30,27.4-34.6c9.2-4.5,20.4-0.7,24.9,8.5
	C183.5,435,179.9,445.9,170.9,450.6z"/>
<path class="st6" d="M153.3,523.9c-8.2,6.1-43.2,8.9-43.2,8.9s12.9-32.7,21.1-38.8c8.4-5.9,20-4,25.9,4.4
	C162.9,506.5,161.3,517.8,153.3,523.9z"/>
<path class="st6" d="M95.9,378.9c7.4,7.1,41.7,14.6,41.7,14.6s-8.4-34.1-15.8-41.2c-7.4-7.2-19.1-7-26.3,0.4S88.5,371.8,95.9,378.9
	L95.9,378.9L95.9,378.9z"/>
<path class="st6" d="M76.4,464.9c9.2,4.6,44.1,1.4,44.1,1.4s-18.2-30-27.4-34.6c-9.1-4.8-20.3-1.3-25.1,7.7s-1.3,20.3,7.7,25.1
	C76,464.7,76.2,464.8,76.4,464.9z"/>
<path class="st6" d="M69,551c8.2,6.1,43.2,8.9,43.2,8.9s-12.9-32.6-21.1-38.7c-8.4-5.9-20-4-25.9,4.4C59.4,533.7,61,544.9,69,551
	L69,551z"/>
<path class="st5" d="M889.8,581.2c0,0-24.7-83.8,4.6-145.4c12.3-25.9,16.4-54.9,10.7-83c-2.7-13.3-6.7-26.4-11.8-39"/>
<path class="st3" d="M911.6,274.9c0,10.3-18.6,40-18.6,40s-18.6-29.8-18.6-40c0-10.3,8.3-18.6,18.6-18.6
	C903.3,256.3,911.6,264.7,911.6,274.9z"/>
<path class="st3" d="M942.3,331.8c-5.6,8.6-37.4,23.5-37.4,23.5s0.6-35.1,6.2-43.7c5.6-8.6,17.1-11.1,25.7-5.5
	S947.9,323.2,942.3,331.8z"/>
<path class="st3" d="M941,429c-9.2,4.6-44.1,1.4-44.1,1.4s18.2-30,27.4-34.6c9.2-4.6,20.3-0.9,25,8.2
	C953.8,413.2,950.1,424.3,941,429L941,429z"/>
<path class="st3" d="M923.4,502.2c-8.3,6.1-43.2,8.9-43.2,8.9s12.9-32.7,21.1-38.8c8.3-6,19.9-4.2,26,4.1
	C933.2,484.7,931.5,496.1,923.4,502.2z"/>
<path class="st3" d="M865.9,357.2c7.4,7.1,41.7,14.6,41.7,14.6s-8.4-34.1-15.8-41.2c-7.3-7.3-19-7.3-26.3,0c-7.3,7.3-7.3,19,0,26.3
	C865.7,357,865.8,357.1,865.9,357.2z"/>
<path class="st3" d="M846.5,443.2c9.2,4.6,44.1,1.4,44.1,1.4s-18.2-30-27.4-34.6c-9.1-4.8-20.3-1.3-25.1,7.7
	c-4.8,9.1-1.3,20.3,7.7,25.1C846.1,443,846.3,443.1,846.5,443.2z"/>
<path class="st3" d="M839,529.4c8.3,6.1,43.2,8.9,43.2,8.9s-12.9-32.6-21.1-38.8c-8.3-6-19.9-4.2-26,4.1
	C829.2,511.8,830.9,523.3,839,529.4z"/>
<path class="st5" d="M778.5,573.1c0,0-13.3-45,2.5-78.1c6.7-13.9,8.7-29.5,5.8-44.6c-1.5-7.2-3.6-14.2-6.3-20.9"/>
<path class="st3" d="M790.2,408.5c0,5.5-10,21.5-10,21.5s-10-16-10-21.5c0-5.5,4.5-10,10-10S790.2,403,790.2,408.5z"/>
<path class="st3" d="M806.7,439c-3,4.6-20.1,12.6-20.1,12.6s0.3-18.9,3.3-23.5c3.2-4.5,9.5-5.5,13.9-2.3
	C808.1,428.9,809.3,434.6,806.7,439z"/>
<path class="st3" d="M806,491.2c-4.9,2.5-23.7,0.8-23.7,0.8s9.8-16.1,14.7-18.6c5-2.3,11,0,13.2,5
	C812.4,483.1,810.5,488.7,806,491.2L806,491.2z"/>
<path class="st3" d="M796.6,530.6c-4.4,3.3-23.2,4.8-23.2,4.8s6.9-17.5,11.4-20.8c4.3-3.5,10.6-2.9,14.1,1.3
	c3.5,4.3,2.9,10.6-1.3,14.1C797.2,530.2,796.9,530.4,796.6,530.6z"/>
<path class="st3" d="M765.7,452.7c4,3.8,22.4,7.8,22.4,7.8s-4.5-18.3-8.5-22.2c-3.8-4-10.1-4.2-14.1-0.5c-4,3.8-4.2,10.1-0.5,14.1
	C765.2,452.3,765.4,452.5,765.7,452.7L765.7,452.7z"/>
<path class="st3" d="M755.2,498.9c4.9,2.5,23.7,0.8,23.7,0.8s-9.8-16.1-14.7-18.6c-5-2.3-11,0-13.2,5
	C748.8,490.8,750.7,496.4,755.2,498.9L755.2,498.9z"/>
<path class="st3" d="M751.2,545.2c4.4,3.3,23.2,4.8,23.2,4.8s-6.9-17.5-11.3-20.8c-4.6-3.1-10.8-1.9-13.9,2.6
	C746.3,536.1,747.1,542,751.2,545.2z"/>
<path class="st0" d="M264.7,47.7h-6.9c2.7,0.1,4.9-1.9,5-4.6c0.1-2.7-1.9-4.9-4.6-5c-0.1,0-0.3,0-0.4,0h-55.7
	c-2.7-0.1-4.9,1.9-5,4.6c-0.1,2.7,1.9,4.9,4.6,5c0.1,0,0.3,0,0.4,0h6.9c-2.7,0-4.8,2.2-4.8,4.8c0,2.7,2.2,4.8,4.8,4.8c0,0,0,0,0,0
	h-9.6c-2.7-0.1-4.9,1.9-5,4.6c-0.1,2.7,1.9,4.9,4.6,5c0.1,0,0.3,0,0.4,0h55.7c2.7,0.1,4.9-1.9,5-4.6c0.1-2.7-1.9-4.9-4.6-5
	c-0.1,0-0.3,0-0.4,0h9.6c2.7,0,4.8-2.2,4.8-4.8C269.5,49.8,267.3,47.7,264.7,47.7C264.7,47.7,264.7,47.7,264.7,47.7L264.7,47.7z"/>
<path class="st0" d="M510.7,168.7h-6.9c2.7,0.1,4.9-1.9,5-4.6c0.1-2.7-1.9-4.9-4.6-5c-0.1,0-0.3,0-0.4,0h-55.7
	c-2.7-0.1-4.9,1.9-5,4.6c-0.1,2.7,1.9,4.9,4.6,5c0.1,0,0.3,0,0.4,0h6.9c-2.7,0-4.8,2.2-4.8,4.8s2.2,4.8,4.8,4.8l0,0h-9.6
	c-2.7-0.1-4.9,1.9-5,4.6c-0.1,2.7,1.9,4.9,4.6,5c0.1,0,0.3,0,0.4,0H501c2.7,0.1,4.9-1.9,5-4.6c0.1-2.7-1.9-4.9-4.6-5
	c-0.1,0-0.3,0-0.4,0h9.6c2.7,0,4.8-2.2,4.8-4.8S513.3,168.7,510.7,168.7z"/>
<path class="st0" d="M929.7,10.7h-6.9c2.7,0.1,4.9-1.9,5-4.6c0.1-2.7-1.9-4.9-4.6-5c-0.1,0-0.3,0-0.4,0h-55.7
	c-2.7-0.1-4.9,1.9-5,4.6c-0.1,2.7,1.9,4.9,4.6,5c0.1,0,0.3,0,0.4,0h6.9c-2.7,0-4.8,2.2-4.8,4.8c0,2.7,2.2,4.8,4.8,4.8h-9.6
	c-2.7-0.1-4.9,1.9-5,4.6c-0.1,2.7,1.9,4.9,4.6,5c0.1,0,0.3,0,0.4,0h55.7c2.7,0.1,4.9-1.9,5-4.6s-1.9-4.9-4.6-5c-0.1,0-0.3,0-0.4,0
	h9.6c2.7,0,4.8-2.2,4.8-4.8C934.5,12.8,932.3,10.7,929.7,10.7z"/>
<path class="st7" d="M705.5,528.8c0.8,0,1.5-0.7,1.5-1.5s-0.7-1.5-1.5-1.5s-1.5,0.7-1.5,1.5S704.7,528.8,705.5,528.8z"/>
<g class="st8">
	
		<linearGradient id="SVGID_1_" gradientUnits="userSpaceOnUse" x1="406.063" y1="308.8009" x2="712.8765" y2="308.8009" gradientTransform="matrix(0.9872 0.1595 0.1595 -0.9872 -196.6052 588.7928)">
		<stop  offset="0" style="stop-color:#808080;stop-opacity:0.25"/>
		<stop  offset="0.54" style="stop-color:#808080;stop-opacity:0.12"/>
		<stop  offset="1" style="stop-color:#808080;stop-opacity:0.1"/>
	</linearGradient>
	<path class="st9" d="M522,443l-14.5-68.4h1.5l-0.2-1.2h0.4l-7.5-37c0,0,0.4-38.6,2.2-53.6c1.3-10.9,3.5-24.8,1.9-36.5
		c0.2-0.3,0.4-0.7,0.6-1c0.6-1.2,1-2.6,1.1-4c0.6-3.3,0.1-6.6-1.3-9.6l15.1-9.4c0.3,0,0.7,0.1,1,0.1c0-0.1-0.1-0.4-0.2-0.6
		c14.7,0.8,28.1-8.1,33.3-21.9c1.3,2,3,3.8,4.9,5.2c4.1,3,10.5,3.7,13.9-0.1c1.2-1.5,2.1-3.3,2.4-5.2c0.2-0.9,0.3-1.7,0.5-2.6
		c1.9-10.2-2.3-20.8-7.7-29.7c-6.8-11.2-15.8-21.3-27.2-27.7s-25.5-8.6-37.9-4.4s-24.9,15.8-26,28.8c-0.6,6.7,0.2,9.8-1.1,16.3
		c-0.7,3.3,0.8,9.6,0.8,13.2c-0.1,0.7-0.2,1.3-0.2,2c-0.2,4,1.4,7.8,2.5,11.6c-16.3,0.8-59.3,4.1-71.7,16.8
		c-15.4,15.7-53.3,21.3-53.3,21.3l-63,12.7l-22,9.3l0.2,1l-0.4,0.2c0,0,0.8,2.9,1.9,6.8c-4.9,4.4-8.1,10.5-9.1,17
		c-1.2,6.8-0.6,15.5,3.7,26.7c0,0,21.7,39.9,23.2,56l27.4,54.7c-2.4,4.7-25.8,52.1-29.9,78.6c-0.3,1.9-0.5,3.8-0.6,5.8
		c0,0-0.1,1.4-0.5,3.7c-1.6,9.8-6.7,34-19.1,45.3l0,0l0,0l0.2,0.1l0,0l0,0l-0.4,0.3l0.3,0.2c-3.7,7.1,1.7,16.8,1.7,16.8l6.1,27.4
		l6.9,1.1l7.2-2.9l4,7.7c0,0,31.1,5,40,4.7s-7.5-15.3-13.2-19.7c-3.2-2.5-5.7-12.6-7.2-21.1c0.8-0.7,1.6-1.5,2.2-2.3
		c0,0-3.8-20,7.7-47.4c4.9-11.7,10.1-25.1,14.6-36.7c2.4,15.5,4.9,31.5,6.8,42.5c2.7,15.8,2.3,25.5,1.5,30.9
		c-0.2,1.9-0.6,3.8-1.3,5.5c0,0.1,0.1,0.1,0.1,0.2c-0.1,0.1-0.1,0.3-0.2,0.4c0.1,0.1,0.1,0.2,0.2,0.3c-6.3,7.2,0.3,18.8,0.3,18.8
		l6.1,27.3l6.9,1.1l7.2-2.9l4,7.7c0,0,31.2,5,40,4.7s-7.5-15.3-13.2-19.7c-4.5-3.5-7.6-22.1-8.7-30.1c0.8-0.1,1.3-0.1,1.3-0.1
		l-0.1-0.5h0.2l-3.9-22.9c-6.7-5.8-5.8-87.7-5.8-87.7s-3.5,8.6-3.6,7.9c0.3-1.4,1.6-5.3,4.5-13.6c1.7-4.8,3-9.7,3.8-14.7
		c3.2-19.5-2.7-31.4-2.7-31.4c0.4-3.9-3.7-19.1-8.6-35.4l15.3-29.9c2.1,0.8,4.4,1,6.7,0.5l11.6-21c0,0,24-14.3,30.9-13.2
		c6.4,1,26.4-3.4,34.2-11.7c0.6-0.6,1.1-1.3,1.5-1.9c6.2-9.5,3.7,49.9,3.7,49.9l-3.3,20.6l-0.2,1.1l9.9,0.2l23.4,80.3
		c0,0,1.5,27.2,28.1,33.3S522,443,522,443z M362.2,350.2c-1.4-4.4-2.7-8.3-3.6-11.1l4.9-3.9c0,0,0.6,0.5,1.7,1.4L362.2,350.2z"/>
</g>
<path class="st10" d="M386.3,569.3c0,0,3.4,28.6,9,32.9s21.5,18.9,12.9,19.2s-39-4.6-39-4.6l-3.9-7.5l-7,2.9l-6.7-1.1l-6-26.7
	c0,0-8.4-15.1,3.4-21.2S386.3,569.3,386.3,569.3z"/>
<path class="st11" d="M357.8,335.2c0,0,23.6,70.1,22.7,79.1c0,0,8.6,17.4-0.9,44.5s-1,6.1-1,6.1s-0.9,79.9,5.6,85.5l3.8,22.3
	c0,0-36.7,4.4-42.9-6.9c0,0,4.8-8.4,0.1-36s-13.7-88.5-13.7-88.5l-24.4-138.9L357.8,335.2z"/>
<path class="st12" d="M357.9,334.6c0,0,23.5,70.1,22.7,79.1c0,0,8.6,17.4-0.9,44.5s-1,6.1-1,6.1s-0.9,79.9,5.6,85.5l3.8,22.3
	c0,0-36.7,4.3-42.9-6.9c0,0,4.8-8.4,0.1-36s-13.7-88.5-13.7-88.5l-24.4-138.9L357.9,334.6z"/>
<path class="st11" d="M313.3,305.5l24,136.1c0,0,9,60.9,13.7,88.5s-0.1,36-0.1,36c1.8,3.3,6.2,5.2,11.5,6.4
	c-7.4-0.9-14.1-2.9-16.5-7.2c0,0,4.8-8.4,0.1-36s-13.7-88.5-13.7-88.5l-24.4-138.9L313.3,305.5z"/>
<path class="st10" d="M312.9,560.3c0,0,3.4,28.6,9,32.9s21.5,18.9,12.9,19.2s-39-4.6-39-4.6l-3.9-7.5l-7,2.9l-6.7-1.1l-6-26.7
	c0,0-8.4-15.1,3.4-21.2S312.9,560.3,312.9,560.3z"/>
<path class="st11" d="M357.8,335.2c0,0,23.6,70.1,22.7,79.1c0,0,8.6,17.4-0.9,44.5s-1,6.1-1,6.1s-0.9,79.9,5.6,85.5l3.8,22.3
	c0,0-36.7,4.4-42.9-6.9c0,0,4.8-8.4,0.1-36s-13.7-88.5-13.7-88.5l-24.4-138.9L357.8,335.2z"/>
<path class="st11" d="M283.2,273.4c0,0-26.2,10.1-12.1,46.6c0,0,21.2,38.9,22.6,54.5l26.8,53.5c0,0-28.6,56.6-29.9,82.1
	c0,0-3.8,34.3-19.2,48.3c0,0,33.2,28.2,45.5,11.9c0,0-3.7-19.5,7.5-46.2s24.5-62.9,24.5-62.9s32.1-21.7,10.7-66.3l-24-99.4
	l-0.4-22.4l-18.4-6.4L283.2,273.4z"/>
<path class="st11" d="M282,273.7c0,0-26.2,10.1-12.1,46.6c0,0,21.2,38.9,22.6,54.5l26.8,53.5c0,0-28.6,56.5-29.8,82.1
	c0,0-3.8,34.2-19.2,48.3c0,0,33.2,28.2,45.5,11.9c0,0-3.7-19.5,7.5-46.2s24.5-62.9,24.5-62.9s32.1-21.7,10.7-66.3l-24-99.4
	l-0.4-22.4l-18.4-6.4L282,273.7z"/>
<path class="st12" d="M282.1,273.2c0,0-26.2,10.1-12.1,46.6c0,0,15.5,28.5,20.9,46.6c2.3,7.7,5.4,15.3,9,22.5l19.5,39
	c0,0-28.6,56.6-29.8,82.1c0,0-3.8,34.3-19.2,48.3c0,0,33.2,28.2,45.5,11.9c0,0-3.7-19.5,7.5-46.2s24.5-62.9,24.5-62.9
	s32.1-21.7,10.7-66.3l-24-99.4l-0.4-22.4l-18.4-6.4L282.1,273.2z"/>
<path class="st11" d="M282.1,273.2l33.6-6.6l4.4,1.5l-31.4,6.1c0,0-26.2,10.1-12.1,46.6c0,0,15.5,28.5,20.9,46.6
	c2.3,7.7,5.4,15.3,9,22.5l19.5,39c0,0-28.6,56.5-29.9,82.1c0,0-3.8,34.3-19.2,48.3c0,0,14.3,12.2,27.6,15.9
	c-14.7-0.3-34.3-17-34.3-17c15.4-14.1,19.2-48.3,19.2-48.3c1.3-25.5,29.8-82.1,29.8-82.1l-19.5-39c-3.6-7.2-6.7-14.7-9-22.5
	c-5.4-18-20.9-46.6-20.9-46.6C255.9,283.2,282.1,273.2,282.1,273.2z"/>
<path class="st13" d="M390.1,344.4L369.2,385c0,0,6.1,54.2-5.6,55.7s-7-59.4-7-59.4l11.2-51.9L390.1,344.4z"/>
<path class="st13" d="M504.2,370.8l14.9,70.4c0,0,36.6,49.4,10.7,43.5s-27.4-32.5-27.4-32.5l-25-85.8L504.2,370.8z"/>
<path class="st13" d="M519,225.7l-36.9,23.2L469,213.6c0,0,30.5,2.1,34.1-9.4S519,225.7,519,225.7z"/>
<polygon class="st13" points="500.1,240.4 497.7,230.3 461.4,232.4 446.7,291.2 474,292.2 489.3,268.4 497.6,245.1 "/>
<path class="st11" d="M487.5,229.8l3-17c0,0-67.3,0.8-82.4,16.1s-52,20.8-52,20.8l-61.5,12.4l-21.5,9.1c0,0,6.1,22.7,8.7,24.3
	s31.6-22.3,31.6-22.3l11,2.9l-35.8,37.7l66.1,65l1.2-35.8l8.5-6.6c0,0,20.1,17,29.1,14.4l11.3-20.5c0,0,23.4-13.9,30.1-12.9
	c6.2,1,25.8-3.3,33.3-11.4c0.5-0.6,1-1.2,1.4-1.8c6.1-9.3,3.6,48.6,3.6,48.6l-3.4,21.2l36.5,0.8l-7.3-36.1c0,0,0.4-37.7,2.2-52.2
	s5-34.6-1.5-47.1l-12.8,12.2l-22.3,35.9L473,256L487.5,229.8z"/>
<path class="st3" d="M487.7,228.6l-3.2-17.4c0,0-61.1,1.3-76.1,16.6s-52,20.8-52,20.8L294.9,261l-21.4,9.1c0,0,6.1,22.7,8.7,24.3
	s31.6-22.3,31.6-22.3l11,2.9L289,312.6l66.1,65l1.2-35.8l8.5-6.6c0,0,20.1,17,29.1,14.4l11.3-20.5c0,0,23.3-13.9,30-12.8
	c6.2,1,25.8-3.3,33.3-11.4c0.5-0.6,1-1.2,1.4-1.8c6.1-9.3,3.6,48.6,3.6,48.6l-3.4,21.2l36.5,0.8l-7.3-36.1c0,0,0.4-37.7,2.2-52.2
	s5-34.6-1.5-47.1L487,250.2l-22.4,35.8l8.5-31.2L487.7,228.6z"/>
<path class="st11" d="M410.6,250.8c0,0-36.4,30.7-40.2,47.2"/>
<path class="st11" d="M450.4,277.2c0,0-28,21.2-33,34.7"/>
<path class="st11" d="M368.6,309.2c0,0-2.6,12.7-3.1,19.5"/>
<path class="st11" d="M355.3,338.5c0,0-41.9-37.6-47.8-36.9"/>
<path class="st11" d="M503.5,204.9c3.4-10.9,14.9,18.7,15.9,21.3c-1.1-0.1-2.2-0.2-3.3-0.4c-8.8-1.4-16.7-6.4-21.8-13.8
	C498.9,210.6,502.4,208.4,503.5,204.9z"/>
<circle class="st13" cx="520.9" cy="192.9" r="32.7"/>
<path class="st11" d="M547.5,197.6c2.6,4.2,4.9,8.8,8.9,11.8s10.2,3.6,13.5-0.1c1.2-1.5,2-3.2,2.4-5.1c2.4-10.3-1.8-21-7.3-30.1
	c-6.6-10.9-15.4-20.8-26.6-27s-24.9-8.4-36.9-4.3s-22,15.2-23,27.9c-0.5,6.5,1.1,13.1-0.3,19.5c-0.7,3.3-2.2,6.5-2.4,9.9
	c-0.3,6.3,4,12.2,3.6,18.5c-0.2,3.9-2.2,7.4-3.5,11.1c-3,8.9-1.4,18.7-2,28.1s-4.7,19.9-13.7,22.7c10,5,23.7-0.3,27.7-10.6
	c1.2-3.2,1.7-6.7,3.5-9.5c3.2-4.8,9.7-6.7,12.4-11.8s0.3-11.3-2.5-16.3s-6.5-9.9-6.6-15.7c0-5.7,3.6-10.8,9-12.8
	c2.7-1,5.7-1,8.5-1.3c7.1-0.9,13.9-3.5,19.8-7.6C539.8,189.9,541.9,188.4,547.5,197.6z"/>
<path class="st14" d="M547.7,196.1c2.6,4.2,4.9,8.8,8.9,11.8s10.2,3.6,13.5-0.1c1.2-1.5,2-3.2,2.4-5.1c2.4-10.3-1.8-21-7.3-30.1
	c-6.6-10.9-15.4-20.8-26.6-27s-24.9-8.4-36.9-4.3s-24.2,15.4-25.3,28.1c-0.5,6.5,0.2,9.5-1.1,15.9c-0.7,3.3,0.9,10,0.8,13.4
	c-0.3,6.3,4,12.2,3.6,18.5c-0.2,3.9-2.2,7.4-3.5,11.1c-3,9-1.4,18.7-2,28.1s-4.7,19.9-13.7,22.7c10,5,23.7-0.3,27.7-10.6
	c1.2-3.2,1.7-6.7,3.5-9.5c3.2-4.8,9.7-6.7,12.4-11.8s0.3-11.3-2.5-16.3s-6.5-9.9-6.6-15.7c0-5.7,3.6-10.8,9-12.8
	c2.7-1,5.7-1,8.5-1.3c7.1-0.9,13.9-3.5,19.8-7.6C540.1,188.5,542.1,187,547.7,196.1z"/>
<path class="st15" d="M493.7,217.3l-13.9-2.2c-1.1-0.2-1.8-1.2-1.6-2.3l0,0c0.2-1.1,1.2-1.8,2.3-1.6l13.9,2.2
	c1.1,0.2,1.8,1.2,1.6,2.3l0,0C495.8,216.8,494.7,217.5,493.7,217.3z"/>
<path class="st16" d="M451.1,491.5c0.2,15.7,13.4,28,29.1,28h2.2c1.9,0,3.8,0.7,5.2,2.1c1,1,1.8,2.3,2.1,3.7
	c0.1,0.6,0.2,1.1,0.2,1.7v27.7c0,5.3,1.5,10.5,4.4,15c4.2,6.3,6.4,13.7,6.5,21.3l0,0c0,7.4,6,13.3,13.3,13.3c0.1,0,0.2,0,0.2,0
	c7.3-0.1,13.1-6.4,13.1-13.8v-6.9l3.6,0.4v6.9c0,7.4,6,13.3,13.3,13.3c0.1,0,0.2,0,0.2,0c7.3-0.1,13.1-6.4,13.1-13.8V587
	c3.6,1.5,24.2,1.5,29.9,0l1.5-0.1v4c0,7.4,5.9,13.4,13.3,13.4c0.1,0,0.2,0,0.3,0c7.3-0.1,13.1-6.4,13.1-13.8v-5.7l1.2-0.1v6.3
	c0,7.4,6,13.3,13.4,13.3c0.1,0,0.1,0,0.2,0c6.7-0.2,12.2-5.3,13-11.9c0.1-0.6,0.1-1.2,0.1-1.9v-28.9c0-9.9-3.3-19.6-9.5-27.4
	c-2.2-2.8-2.3-6.8-0.2-9.7c6.8-9.9,16.8-26.7,16.5-38.6c0.1-3.2-1.1-6.4-3.2-8.8c-0.1-0.2-0.3-0.3-0.4-0.4
	c-9.8-10.2-26.9-2.2-25.5,11.9c0.5,4.7,0.2,9.5-1,14c-0.7,2.6-1.6,5.1-2.7,7.5c-2.3,5-7.6,7.9-13.1,7.3c-1.8-0.2-3.6-0.3-5.5-0.3
	h-56c-6.7,0-12.7-4.3-14.9-10.7c-0.6-1.6-0.9-3.3-0.8-5.1v-43.6c0-4.7-3.8-8.5-8.5-8.5c-0.1,0-0.2,0-0.3,0c-2.2,0.1-4.3,1.1-5.8,2.7
	c-1.5,1.7-2.4,3.8-2.4,6.1c0,2.5-2,4.5-4.5,4.5c0,0,0,0,0,0h-26.5c-15.7,0-28.5,12.7-28.5,28.5C451.1,491.2,451.1,491.3,451.1,491.5
	L451.1,491.5z"/>
<path class="st17" d="M617.5,594.2c1.5,6,7,10.1,13.2,10c6.7-0.2,12.2-5.3,13-11.9C635.5,590.2,624.3,588.7,617.5,594.2z"/>
<path class="st17" d="M589.6,594.2c1.5,6,7,10.1,13.2,10c6.6-0.2,12.1-5.3,12.9-11.9C607.7,590.2,596.5,588.7,589.6,594.2z"/>
<path class="st17" d="M531.5,594.2c1.5,6,7,10.1,13.2,10c6.7-0.2,12.2-5.3,13-11.9C549.5,590.2,538.3,588.7,531.5,594.2z"/>
<path class="st17" d="M501.2,594.2c1.5,6,7,10.1,13.2,10c6.6-0.2,12.1-5.3,12.9-11.9C519.2,590.2,508.1,588.7,501.2,594.2z"/>
<path class="st17" d="M620.4,502.6c9.4-3.8,20.9-10.7,30-16.7c0.1-3.2-1.1-6.4-3.2-8.8c-0.1-0.2-0.3-0.3-0.4-0.4
	c-9.8-10.2-26.9-2.2-25.5,11.9C621.9,493.3,621.6,498,620.4,502.6z"/>
<path class="st17" d="M609,517.2c0,0-25.9,32.6-68.3-0.1"/>
<path class="st17" d="M527.4,456.5c0,0-15.7,20.6,0,46"/>
<path class="st17" d="M489.9,526.8c0,0,13.9,17.2,0.2,30.9"/>
<path class="st11" d="M488.7,523.1c1,1,0.7,1.9,1,3.3l45-11.8c-2.4-1.9-5.4-4.1-6.4-7C522.9,511.8,512.2,518.8,488.7,523.1z"/>
<path class="st18" d="M487.6,521.6c1,1,1.8,2.3,2.1,3.7l43.9-11.4c-2.5-1.9-4.3-4.5-5.3-7.4C522.9,510.6,511.1,517.2,487.6,521.6z"
	/>
<path class="st11" d="M526.6,508.8c0,0-13.7,10.3-36.7,13.5"/>
<path class="st16" d="M526.6,507.6c0,0-13.7,10.3-36.7,13.5"/>
<path class="st11" d="M492.3,508.6c0,0-23,7.3-29.1-15.7L492.3,508.6z"/>
<path class="st17" d="M492.3,507.4c0,0-23,7.3-29.1-15.7L492.3,507.4z"/>
<ellipse class="st18" cx="451.1" cy="488.6" rx="2.4" ry="4.2"/>
<path class="st11" d="M634.6,575.8l-4.8-38.8C629.8,537,644.3,560,634.6,575.8"/>
<path class="st17" d="M628.5,537c0,0,14.5,23,4.8,38.8L628.5,537z"/>
</svg>
