<?xml version="1.0" encoding="utf-8"?>
<!-- Generator: Adobe Illustrator 26.2.1, SVG Export Plug-In . SVG Version: 6.00 Build 0)  -->
<svg version="1.1" id="Layer_1" xmlns="http://www.w3.org/2000/svg" xmlns:xlink="http://www.w3.org/1999/xlink" x="0px" y="0px"
	 viewBox="0 0 779 669" style="enable-background:new 0 0 779 669;" xml:space="preserve">
<style type="text/css">
	.st0{fill:#F2F2F2;}
	.st1{fill:#E6E6E6;}
	.st2{fill:#3F3D56;}
	.st3{fill:#5D7E69;}
	.st4{opacity:0.1;enable-background:new    ;}
	.st5{fill:#FFFFFF;}
	.st6{fill:#F7E7CB;}
	.st7{fill:#2F2E41;}
	.st8{fill:#FFB9B9;}
</style>
<ellipse class="st0" cx="629" cy="638" rx="150" ry="31"/>
<path class="st1" d="M45.9,390c0.9,2.1,1.8,4.2,2.8,6.3l-2.1,1c-1-2.1-1.9-4.2-2.8-6.3L45.9,390z"/>
<path class="st1" d="M417.1,223.4c1.3,2.8,2.6,5.6,3.7,8.5l-2.1,0.9c-1.8-4.2-3.7-8.5-5.8-12.6l2.1-1
	C415.7,220.5,416.4,221.9,417.1,223.4z M408.4,206.8l-2,1.2c-2.3-4-4.8-7.9-7.4-11.7l1.9-1.3C403.5,198.7,406,202.7,408.4,206.8z
	 M425.8,245c1.5,4.4,2.9,8.9,4,13.4l-2.2,0.6c-1.2-4.4-2.5-8.9-4-13.3L425.8,245z M392.6,183.6l-1.8,1.4c-2.8-3.6-5.9-7.2-8.9-10.6
	l1.7-1.5C386.7,176.3,389.7,179.9,392.6,183.6L392.6,183.6z M432.9,272.1c0.9,4.6,1.6,9.2,2.2,13.9l-2.3,0.3
	c-0.6-4.6-1.3-9.2-2.1-13.7L432.9,272.1z M373.8,162.8l-1.6,1.7c-3.3-3.2-6.8-6.3-10.3-9.3l1.5-1.8
	C366.9,156.4,370.4,159.6,373.8,162.8z M436.3,299.9c0.2,4.7,0.3,9.4,0.2,14l-2.3,0c0.1-4.6,0-9.3-0.2-13.9L436.3,299.9z
	 M352.3,144.8l-1.4,1.9c-3.7-2.7-7.6-5.3-11.5-7.8l1.2-1.9C344.6,139.5,348.5,142.1,352.3,144.8z M435.8,328
	c-0.4,4.6-1,9.3-1.7,13.9l-2.3-0.4c0.7-4.5,1.3-9.2,1.7-13.8L435.8,328z M328.5,130l-1.1,2c-4.1-2.2-8.2-4.2-12.4-6.1l0.9-2.1
	C320.2,125.7,324.4,127.8,328.5,130z M431.4,355.7c-1,4.5-2.2,9.1-3.6,13.6l-2.2-0.7c1.3-4.4,2.5-8.9,3.5-13.4L431.4,355.7z
	 M303,118.4l-0.8,2.2c-4.3-1.6-8.7-3.1-13.2-4.4l0.7-2.2C294.1,115.3,298.6,116.8,303,118.4z M423.3,382.5
	c-1.6,4.4-3.5,8.7-5.4,12.9l-2.1-1c1.9-4.2,3.7-8.5,5.3-12.8L423.3,382.5z M276.1,110.5l-0.5,2.2c-4.5-1-9.1-1.9-13.6-2.5l0.3-2.3
	C266.9,108.6,271.6,109.5,276.1,110.5z M411.7,408c-2.2,4.1-4.6,8.2-7.1,12.1l-1.9-1.2c2.5-3.9,4.8-7.9,7-12L411.7,408z
	 M248.4,106.3l-0.2,2.3c-4.6-0.4-9.3-0.6-13.9-0.7l0-2.3C239,105.7,243.7,105.9,248.4,106.3L248.4,106.3z M396.7,431.7
	c-2.8,3.7-5.7,7.4-8.7,11l-1.8-1.5c3-3.5,5.9-7.2,8.6-10.9L396.7,431.7z M220.3,106l0.1,2.3c-4.6,0.3-9.3,0.7-13.8,1.3l-0.3-2.3
	C210.9,106.6,215.6,106.2,220.3,106z M378.6,453.1c-3.2,3.3-6.7,6.6-10.1,9.7l-1.5-1.7c3.4-3.1,6.8-6.3,10-9.6L378.6,453.1z
	 M192.5,109.5l0.4,2.3c-4.5,0.9-9.1,1.9-13.5,3.1l-0.6-2.2C183.3,111.4,187.9,110.4,192.5,109.5z M357.7,471.8
	c-3.7,2.9-7.5,5.6-11.4,8.2l-1.3-1.9c3.8-2.6,7.6-5.3,11.2-8.1L357.7,471.8z M165.4,116.8l0.7,2.2c-4.3,1.5-8.7,3.2-12.9,5l-0.9-2.1
	C156.6,120,161,118.3,165.4,116.8z M334.4,487.4c-4,2.3-8.2,4.5-12.4,6.6l-1-2.1c4.1-2,8.3-4.2,12.2-6.5L334.4,487.4z M140.6,129.7
	c-4.1,2.1-8.2,4.3-12.2,6.7l-1.2-2c4-2.4,8.1-4.6,12.3-6.7L140.6,129.7z M116.8,143.9c-3.8,2.6-7.5,5.4-11.1,8.3l-1.4-1.8
	c3.6-2.9,7.4-5.7,11.3-8.4L116.8,143.9z M95.1,161.1c-3.4,3.1-6.7,6.4-9.9,9.7l-1.7-1.6c3.2-3.4,6.6-6.7,10-9.8L95.1,161.1z
	 M76,181.2c-2.9,3.5-5.8,7.2-8.5,11l-1.9-1.3c2.7-3.8,5.6-7.5,8.6-11.1L76,181.2z M59.9,203.7c-2.4,3.9-4.7,8-6.9,12l-2-1.1
	c2.2-4.1,4.5-8.2,7-12.2L59.9,203.7z M46.9,228.2c-1.9,4.2-3.6,8.5-5.2,12.9l-2.2-0.8c1.6-4.4,3.4-8.8,5.2-13L46.9,228.2z
	 M37.4,254.2c-1.3,4.4-2.4,9-3.4,13.5l-2.2-0.5c1-4.5,2.1-9.1,3.4-13.6L37.4,254.2z M31.6,281.3c-0.7,4.6-1.2,9.2-1.5,13.8l-2.3-0.2
	c0.4-4.6,0.9-9.3,1.5-13.9L31.6,281.3z M29.5,309c0,4.6,0.1,9.3,0.4,13.9l-2.3,0.1c-0.3-4.6-0.4-9.4-0.4-14L29.5,309z M31.2,336.7
	c0.6,4.6,1.4,9.2,2.3,13.7l-2.3,0.5c-0.9-4.6-1.7-9.2-2.3-13.8L31.2,336.7z M36.7,363.9c1.2,4.4,2.6,8.9,4.1,13.2l-2.2,0.8
	c-1.5-4.4-3-8.9-4.2-13.4L36.7,363.9z"/>
<path class="st1" d="M308.1,497.8l0.9,2.1c-2.1,0.9-4.3,1.7-6.5,2.5l-0.8-2.2C303.8,499.5,305.9,498.6,308.1,497.8z"/>
<path class="st2" d="M416.1,401.5c-0.2-0.4-5.6-9.4-7.5-28.2c-1.7-17.2-0.6-46.2,14.4-86.7c28.5-76.7-6.6-138.5-6.9-139.1l1.7-1
	c0.1,0.2,9.1,15.9,14.5,41c7.1,33.3,4.5,67.9-7.4,99.8c-28.5,76.5-7.3,112.8-7.1,113.1L416.1,401.5z"/>
<circle class="st3" cx="405" cy="130" r="13"/>
<circle class="st2" cx="446" cy="178" r="13"/>
<circle class="st3" cx="418" cy="210" r="13"/>
<circle class="st3" cx="452" cy="237" r="13"/>
<circle class="st2" cx="408" cy="279" r="13"/>
<path class="st2" d="M424,402c0,0-13-32,26-56L424,402z"/>
<path class="st2" d="M408,401.4c0,0-5.9-34-51.7-33.7L408,401.4z"/>
<path class="st2" d="M322.2,162.9c-1.1-0.3-2.1,0.4-2.4,1.5c-0.2,0.9,0.2,1.8,1,2.2c6.8,3.8,12.8,8.9,17.6,15
	c22.4,28.5,14.6,72-17.5,97.3c-14.2,11.4-32,17.6-50.3,17.4c21.5,6.1,47,1.3,67.4-14.8c32.1-25.3,39.9-68.8,17.5-97.3
	C347.1,173.4,335.4,166,322.2,162.9z"/>
<path class="st3" d="M338.3,181.9c22.4,28.5,14.6,72-17.5,97.3c-11.8,9.4-25.9,15.2-40.8,16.9c17.8-0.1,35.1-6.2,49-17.4
	c32.1-25.3,39.9-68.8,17.5-97.3c-6.4-8.1-14.7-14.3-24.2-18.2l-0.1,0c-1.1-0.2-2.1,0.4-2.4,1.5c-0.2,0.9,0.2,1.8,1,2.2
	C327.6,170.7,333.5,175.8,338.3,181.9z"/>
<polygon class="st3" points="238.9,138 252.1,160.9 265.4,183.8 238.9,183.8 212.4,183.8 225.7,160.9 "/>
<polygon class="st3" points="287.2,138 300.4,160.9 313.6,183.8 287.2,183.8 260.7,183.8 273.9,160.9 "/>
<polygon class="st2" points="237.4,150 245.5,164.1 253.7,178.2 237.4,178.2 221,178.2 229.2,164.1 "/>
<polygon class="st2" points="287,150 295.1,164.1 303.3,178.2 287,178.2 270.7,178.2 278.8,164.1 "/>
<path class="st2" d="M356.1,301.1c0,51.4-41.7,93.1-93.1,93.1c-51.4,0-93.1-41.7-93.1-93.1c0-51.4,41.7-93.1,93.1-93.1
	c21.9,0,43,7.7,59.8,21.8C343.9,247.4,356.1,273.5,356.1,301.1z"/>
<path class="st4" d="M322.8,229.7c-7.8,20.3-31.6,35.1-59.8,35.1s-52-14.8-59.8-35.1C237.8,200.7,288.3,200.7,322.8,229.7z"/>
<ellipse class="st2" cx="263" cy="208" rx="62.5" ry="49.6"/>
<circle class="st5" cx="233.7" cy="201.1" r="11.6"/>
<circle class="st5" cx="292.3" cy="201.1" r="11.6"/>
<circle class="st2" cx="233.7" cy="201.1" r="7.3"/>
<circle class="st2" cx="292.3" cy="201.1" r="7.3"/>
<circle class="st3" cx="250" cy="217.5" r="2.2"/>
<path class="st3" d="M249.1,216.9c-4.2,1.9-7,5.8-11.5,7.5c-4.5,1.7-9.5,1.8-14.1,0.3c-0.8-0.3-1.1,1-0.3,1.2
	c4.6,1.5,9.6,1.5,14.1,0c2.2-0.7,4.2-1.8,6-3.2c2.1-1.6,3.9-3.5,6.4-4.7C250.6,217.7,249.9,216.6,249.1,216.9L249.1,216.9z"/>
<path class="st3" d="M250.8,216.4c-2.2,0.5-4.2,1.3-6.2,2.3c-2.2,1.1-4.7,1.8-7.1,2c-4.7,0.4-9.4-0.8-13.4-3.4
	c-0.7-0.5-1.3,0.7-0.7,1.1c3.9,2.6,8.6,3.9,13.3,3.6c2.3-0.1,4.5-0.6,6.7-1.4c2.6-1,4.9-2.5,7.7-3
	C252,217.5,251.6,216.2,250.8,216.4z"/>
<path class="st3" d="M249.7,215.5c-3.3,3.1-4.7,7.6-8.1,10.6c-3.8,3.2-8.5,5-13.5,5.1c-0.4,0-0.6,0.3-0.6,0.7c0,0.3,0.3,0.6,0.6,0.6
	c4.8,0,9.5-1.6,13.3-4.5c1.7-1.3,3.2-2.9,4.5-4.6c1.6-2.3,2.7-4.9,4.8-6.9C251.2,215.9,250.3,215,249.7,215.5L249.7,215.5z"/>
<circle class="st3" cx="272.7" cy="217.5" r="2.2"/>
<path class="st3" d="M272.8,218c2.4,1.1,4.2,3,6.3,4.6c1.8,1.4,3.9,2.5,6.1,3.3c4.6,1.6,9.6,1.6,14.1,0c0.8-0.3,0.4-1.5-0.3-1.2
	c-4.6,1.5-9.6,1.4-14.1-0.3c-4.4-1.7-7.2-5.6-11.5-7.5C272.7,216.6,272.1,217.7,272.8,218L272.8,218z"/>
<path class="st3" d="M271.5,217.6c2.7,0.5,4.9,1.9,7.4,2.9c2.2,0.9,4.6,1.4,7,1.6c4.7,0.3,9.4-1,13.3-3.6c0.7-0.5,0-1.6-0.7-1.1
	c-3.9,2.6-8.6,3.8-13.4,3.4c-2.5-0.3-4.9-0.9-7.1-2c-2-1.1-4-1.8-6.2-2.3C271,216.2,270.6,217.5,271.5,217.6L271.5,217.6z"/>
<path class="st3" d="M272,216.4c2.1,2,3.2,4.6,4.8,6.9c1.3,1.8,2.8,3.3,4.5,4.6c3.8,2.9,8.5,4.5,13.3,4.5c0.4,0,0.6-0.3,0.6-0.7
	c0-0.3-0.3-0.6-0.6-0.6c-5,0-9.7-1.8-13.5-5.1c-3.5-3-4.9-7.5-8.1-10.6C272.4,215,271.4,215.9,272,216.4L272,216.4z"/>
<ellipse class="st2" cx="233.7" cy="390.7" rx="17.2" ry="9.9"/>
<ellipse class="st2" cx="292.3" cy="390.7" rx="17.2" ry="9.9"/>
<ellipse class="st3" cx="261.3" cy="217" rx="14.2" ry="8.2"/>
<path class="st6" d="M0,0v556h745V0H0z M96,7c6.6,0,12,5.4,12,12c0,6.6-5.4,12-12,12s-12-5.4-12-12C84,12.4,89.4,7,96,7z M24,31
	c-6.6,0-12-5.4-12-12c0-6.6,5.4-12,12-12s12,5.4,12,12C36,25.6,30.6,31,24,31z M48,19c0-6.6,5.4-12,12-12s12,5.4,12,12
	c0,6.6-5.4,12-12,12S48,25.6,48,19z M461,400H60V102h401V400z"/>
<rect x="705" y="10" class="st5" width="24" height="3"/>
<rect x="705" y="19" class="st5" width="24" height="3"/>
<rect x="705" y="28" class="st5" width="24" height="3"/>
<rect x="524" y="97" class="st5" width="181" height="9"/>
<rect x="524" y="128" class="st5" width="181" height="9"/>
<rect x="524" y="159" class="st5" width="181" height="9"/>
<rect x="524" y="190" class="st5" width="181" height="9"/>
<rect x="524" y="221" class="st5" width="181" height="9"/>
<rect x="524" y="252" class="st5" width="181" height="9"/>
<rect x="524" y="283" class="st5" width="181" height="9"/>
<rect x="524" y="314" class="st5" width="181" height="9"/>
<rect x="524" y="345" class="st5" width="181" height="9"/>
<rect x="524" y="376" class="st5" width="181" height="9"/>
<circle class="st5" cx="84" cy="421" r="12"/>
<circle class="st5" cx="125" cy="421" r="12"/>
<circle class="st5" cx="166" cy="421" r="12"/>
<rect x="524" y="480" class="st3" width="181" height="51"/>
<path class="st7" d="M614,439.4l2,70.9l21.6,83c0,0-4.7,14.2-1.3,17.5s18.9,9.4,18.9,9.4l-12.8-176.8L614,439.4z"/>
<path class="st7" d="M660.8,610.5c0,0,7.7,16.9-3.1,18.5s-60.6,5.6-57.5-3.1s40.6-16.9,40.6-16.9L660.8,610.5z"/>
<path class="st7" d="M689.5,376.7c0,0-8.1,43.9-13.5,51.3s2.7,61.4,2.7,61.4s12.1,77.6,6.7,89.7s-4,8.1-3.4,14.8s2,12.1,0,18.2
	s-2,5.4-2.7,8.8s0,21.6,0,21.6s-29,10.1-33.7-4.7c0,0,6.7-9.4,4.7-16.9c-2.1-7.5-3.2-15.2-3.4-22.9v-14.2l-31-116.1l-7.4-41.8
	c0,0,2-42.5,9.4-46.6S689.5,376.7,689.5,376.7z"/>
<path class="st7" d="M677.4,639.2c0,0,10.1,22.3-4,24.3s-79.6,7.4-75.6-4s53.3-22.3,53.3-22.3L677.4,639.2z"/>
<circle class="st8" cx="664.6" cy="155.4" r="27"/>
<path class="st8" d="M683.5,167.3l-0.5,34.5l-33.1,0.1c0,0,8.4-27,4.6-32.6S683.5,167.3,683.5,167.3z"/>
<path class="st2" d="M634.2,220.8c0,0,23.6-30.4,41.8-17.5s25,43.2,25,43.2l-4,85c0,0-10.1,12.1-4,20.2s9.4,6.1,4.7,12.1
	s-10.1,10.8-8.1,12.8s-2,3.4-2,3.4l-71.5,2c0,0,2-2.7-4-10.8s1.3-18.9,0-22.9s-2.7,0.7-3.4-8.8S634.2,220.8,634.2,220.8z"/>
<path class="st8" d="M641,394.9c0,0-1.3,16.9-11.5,19.6c-3.8,1-6.6-0.9-8.7-3.7c-4-5.5-4.2-12.9-0.5-18.6l2.5-4L641,394.9z"/>
<path class="st2" d="M703.4,186.7c0,0,0.7,13.5,0,15.5s-1.3,4,0,6.1s0.7,8.8-0.7,9.4s2.7,6.7,1.3,10.8s-2.7,5.4-3.4,6.7
	s-1.8,3.8-1.8,3.8s-19.8-42.2-36-32.1s-29,13.5-29,13.5S642.6,173.2,703.4,186.7z"/>
<path class="st2" d="M674,218.1c0,0,21.6,2,20.2,30.4s2,72.9,2,72.9s-37.1,56.7-43.2,60.7s-6.7,3.4-6.1,6.7s1.3,6.1-1.3,8.8
	c-1.6,1.6-3.4,3-5.4,4c0,0-21.6-7.4-19.6-14.2s11.5-17.5,11.5-17.5s16.2-26.3,16.9-30.4s0.7-3.4,2.7-5.4s7.4-10.1,7.4-14.2v-12.8
	l-5.7-68.5c-0.5-5.6,1.4-11.2,5.3-15.4C662,219.9,666.8,217.3,674,218.1z"/>
<path class="st7" d="M647.2,134.6c-3.6,1-7.4,0.1-10.2-2.3c-2.6-2.5-3.5-6.8-1.6-10c1.6-2.7,4.8-4,7.8-4.9
	c6.6-2.1,13.5-3.1,20.4-3.1c3.3,0,6.8,0.3,9.6,2c1.4,0.8,2.6,2,4,2.9c2.5,1.6,5.6,2.1,8.4,3.2c5.8,2.3,10.3,7.1,12.3,13
	c0.6,2,1,4,1.2,6.1c0.5,5.7-0.5,11.4-2.9,16.6c-3.8,8.2-10.9,15.1-11.9,24.1c-3.9-3.2-5-8.7-8-12.7c-2.2-3-5.4-5.2-9-6.1
	c-1-0.1-2-0.6-2.7-1.2c-0.5-0.7-0.8-1.6-0.9-2.5l-1.9-13.3c-0.4-2.7-0.9-5.7-3-7.5c-1.3-1-2.8-1.6-4.4-1.9
	c-3.8-0.9-7.6-1.6-11.5-1.9"/>
<path class="st4" d="M693,331l-37.9,49.2C655.1,380.2,690,351,693,331z"/>
<polygon class="st4" points="656.6,276.6 657,323 635,356 653,319 "/>
</svg>
