<?xml version="1.0" encoding="utf-8"?>
<!-- Generator: Adobe Illustrator 26.2.1, SVG Export Plug-In . SVG Version: 6.00 Build 0)  -->
<svg version="1.1" id="Layer_1" xmlns="http://www.w3.org/2000/svg" xmlns:xlink="http://www.w3.org/1999/xlink" x="0px" y="0px"
	 viewBox="0 0 1072 760" style="enable-background:new 0 0 1072 760;" xml:space="preserve">
<style type="text/css">
	.st0{fill:#D0CDE1;}
	.st1{fill:#EAE6FC;}
	.st2{fill:#FFFFFF;}
	.st3{fill:#5D7E69;}
	.st4{fill:#3F3D56;}
	.st5{fill:#FF6584;}
</style>
<rect x="92" class="st0" width="888" height="672.6"/>
<rect x="184" y="42.4" class="st1" width="704" height="587.8"/>
<path class="st0" d="M911.4,317.9H579c-11.2,0-20.3-9.1-20.3-20.3v-256c0-11.2-9.1-20.3-20.3-20.3h-4.7c-11.2,0-20.3,9.1-20.3,20.3
	v256c0,11.2-9.1,20.3-20.3,20.3H160.6c-11.2,0-20.3,9.1-20.3,20.3v0v4.7c0,11.2,9.1,20.3,20.3,20.3l0,0H493
	c11.2,0,20.3,9.1,20.3,20.3v243c0,11.2,9.1,20.3,20.3,20.3h4.7c11.2,0,20.3-9.1,20.3-20.3v-243c0-11.2,9.1-20.3,20.3-20.3h332.5
	c11.2,0,20.3-9.1,20.3-20.3v-4.7C931.7,327,922.7,317.9,911.4,317.9z"/>
<path class="st0" d="M476.6,614l-42.2-89c-1.5-3.1-0.2-6.8,3-8.3c0.8-0.4,1.8-0.6,2.7-0.6l0,0c3.5,0,6.3-2.8,6.3-6.3
	c0-0.9-0.2-1.8-0.6-2.7l-35.3-74.3c-1.5-3.1-0.2-6.8,3-8.3c0.8-0.4,1.8-0.6,2.7-0.6h12c3.5,0,6.3-2.8,6.3-6.3c0-0.9-0.2-1.8-0.6-2.7
	l-37.6-79.3c-1.5-3.1-0.2-6.8,3-8.3c0.8-0.4,1.8-0.6,2.7-0.6h4c3.5,0,6.3-2.8,6.3-6.3c0-0.9-0.2-1.8-0.6-2.7l-50.4-106.2
	c-1.5-3.1-5.2-4.4-8.3-3c-1.3,0.6-2.4,1.7-3,3l-50.4,106.2c-1.5,3.1-0.2,6.8,3,8.3c0.8,0.4,1.8,0.6,2.7,0.6h4c3.5,0,6.3,2.8,6.3,6.3
	c0,0.9-0.2,1.8-0.6,2.7L276.9,415c-1.5,3.1-0.2,6.8,3,8.3c0.8,0.4,1.8,0.6,2.7,0.6h12c3.5,0,6.3,2.8,6.3,6.3c0,0.9-0.2,1.8-0.6,2.7
	l-35.3,74.3c-1.5,3.1-0.2,6.8,3,8.3c0.8,0.4,1.8,0.6,2.7,0.6l0,0c3.5,0,6.3,2.8,6.3,6.3c0,0.9-0.2,1.8-0.6,2.7l-42.2,89
	c-1.5,3.1-0.2,6.8,3,8.3c0.8,0.4,1.8,0.6,2.7,0.6h83.6c3.5,0,6.3,2.8,6.3,6.3l0,0v28c0,3.5,2.8,6.3,6.3,6.3l0,0h30
	c3.5,0,6.3-2.8,6.3-6.3l0,0v-28c0-3.5,2.8-6.3,6.3-6.3h0H471c3.5,0,6.3-2.8,6.3-6.3C477.2,615.8,477,614.8,476.6,614z"/>
<circle class="st2" cx="808.2" cy="469.4" r="58"/>
<circle class="st2" cx="814.5" cy="590.6" r="79.7"/>
<path class="st3" d="M859.5,510.1l-95.9,4.9c-1.5,0.1-2.6,1.3-2.5,2.8l0.3,5.5c0.1,1.5,1.3,2.6,2.8,2.5l16.3-0.8l1.8,1.5l-10.9,74.7
	l10.2,12l11.1-77.8l49.9,42.9l13.8-3l-59.2-51.2l63-3.3c1.5-0.1,2.6-1.3,2.5-2.8l0,0l-0.3-5.5C862.3,511.1,861,510,859.5,510.1
	L859.5,510.1z"/>
<path class="st3" d="M775.3,442.4c0,0,24.2-13.7,24-18.1S788.6,407,770.9,408c0,0-4.8-7.7-9.8-1.3s3.2,10.5,3.2,10.5
	s-8.9,16.5,5.8,25.5L775.3,442.4z"/>
<circle class="st4" cx="786" cy="458.9" r="4.6"/>
<circle class="st4" cx="829.2" cy="456.7" r="4.6"/>
<rect x="804.6" y="467.8" transform="matrix(0.9987 -5.150752e-02 5.150752e-02 0.9987 -23.6984 42.2981)" class="st5" width="8.5" height="26.3"/>
<circle class="st4" cx="814.5" cy="562" r="4.6"/>
<circle class="st4" cx="815.4" cy="579" r="4.6"/>
<circle class="st4" cx="816.3" cy="596" r="4.6"/>
<path class="st4" d="M810,503.7c-7.7,0.3-15.4-1.3-22.3-4.7l0.7-1.4c14.5,6.9,28.8,6.1,42.5-2.2l0.8,1.3
	C825.1,500.8,817.7,503.2,810,503.7z"/>
<circle class="st5" cx="842.3" cy="469.9" r="3.9"/>
<circle class="st5" cx="774.3" cy="473.4" r="3.9"/>
<rect y="668.6" class="st4" width="1072" height="3.6"/>
<path class="st0" d="M294.2,288.8c0.8,0,1.5-0.7,1.4-1.6c0-0.8-0.7-1.4-1.4-1.4c-0.8,0-1.5,0.7-1.4,1.6
	C292.7,288.2,293.4,288.8,294.2,288.8z"/>
<circle class="st0" cx="658.5" cy="84.5" r="11"/>
<circle class="st0" cx="669.5" cy="164.2" r="7.4"/>
<circle class="st0" cx="800.6" cy="262.2" r="7.4"/>
<path class="st3" d="M497,667.6H186.3v0c0-56.2,45.5-101.7,101.7-101.7c56.6-17.6,130.4-12,208.9,0V667.6z"/>
<path class="st4" d="M452.6,645.4h146.1c5.1,0,9.2,4.1,9.2,9.2l0,0c0,5.1-4.1,9.2-9.2,9.2H452.6l0,0L452.6,645.4L452.6,645.4z"/>
<path class="st4" d="M477.9,478.8l39.2-47.5c2.5-5.1,8.6-7.3,13.7-4.8c2.7,1.3,4.6,3.6,5.4,6.5l15.4,54.5L477.9,478.8z"/>
<path class="st3" d="M430.4,503l14.8-59.7c0-5.7,4.6-10.3,10.3-10.3c2.9,0,5.8,1.3,7.7,3.5l37.5,42.5L430.4,503z"/>
<path class="st3" d="M186.3,667.6h29.6l0,0v62.9c0,16.3-13.2,29.6-29.6,29.6c0,0,0,0,0,0l0,0l0,0L186.3,667.6L186.3,667.6z"/>
<path class="st3" d="M447.1,649.1h146.1c5.1,0,9.2,4.1,9.2,9.2l0,0c0,5.1-4.1,9.2-9.2,9.2H447.1l0,0V649.1L447.1,649.1z"/>
<circle class="st3" cx="497" cy="567.7" r="99.9"/>
<ellipse class="st4" cx="593.1" cy="575.1" rx="11.1" ry="25.9"/>
<ellipse class="st4" cx="566.3" cy="548.3" rx="2.8" ry="6.5"/>
<ellipse class="st4" cx="586.7" cy="535.3" rx="2.8" ry="6.5"/>
<path class="st4" d="M488.6,466.7c0,0-5.5-9.7-5.5-15.5"/>
<path class="st4" d="M491.1,460.5c0,0,3-10.7,7.2-14.8"/>
<circle class="st0" cx="611.2" cy="388.7" r="7.6"/>
<circle class="st0" cx="588.7" cy="253.6" r="7.4"/>
<circle class="st0" cx="279.9" cy="176.4" r="7.4"/>
<circle class="st0" cx="676.8" cy="425.5" r="7.4"/>
<circle class="st0" cx="256.6" cy="452.1" r="7.4"/>
<circle class="st0" cx="430.6" cy="210.7" r="11"/>
<path class="st4" d="M919,247.4C802.8,190.2,745.7,77.5,726.5,31.7c-2-4.9-6.2-8.5-11.3-9.7c-5.2-1.3-10.6-0.1-14.8,3.3
	c-69,56-139.7,77.2-210.2,63.1c-58.2-11.6-101.7-45.1-122.4-64c-5.5-5-13.9-4.6-18.9,0.9c-1.1,1.2-1.9,2.5-2.5,4
	c-19,46.3-75.9,160.3-193.5,218.2l-1-2.1c116.9-57.5,173.5-170.9,192.4-217c3.3-8,12.4-11.8,20.4-8.6c1.7,0.7,3.3,1.7,4.6,2.9
	c46.8,42.7,172.5,128.2,329.6,0.8c4.7-3.8,10.9-5.2,16.8-3.7c5.8,1.4,10.6,5.5,12.9,11.1c19,45.5,75.8,157.6,191.3,214.5L919,247.4z
	"/>
<circle class="st3" cx="187.1" cy="226.8" r="19.6"/>
<ellipse transform="matrix(0.1602 -0.9871 0.9871 0.1602 59.0692 403.255)" class="st3" cx="266.5" cy="166.9" rx="19.6" ry="19.6"/>
<circle class="st3" cx="328.7" cy="67.9" r="19.6"/>
<circle class="st3" cx="447.3" cy="71.3" r="19.6"/>
<circle class="st3" cx="538.3" cy="90.9" r="19.6"/>
<circle class="st3" cx="646.6" cy="59.8" r="19.6"/>
<circle class="st3" cx="750.2" cy="77.1" r="19.6"/>
<circle class="st3" cx="804.3" cy="155.4" r="19.6"/>
<circle class="st3" cx="867.7" cy="216.4" r="19.6"/>
<circle class="st4" cx="366" cy="25.7" r="11"/>
<circle class="st4" cx="706" cy="25.7" r="11"/>
</svg>
